<?xml version="1.0" encoding="iso-8859-1"?>
<!-- Uploaded to: SVG Repo, www.svgrepo.com, Generator: SVG Repo Mixer Tools -->
<!DOCTYPE svg PUBLIC "-//W3C//DTD SVG 1.1//EN" "http://www.w3.org/Graphics/SVG/1.1/DTD/svg11.dtd">
<svg fill="#000000" version="1.1" id="Capa_1" xmlns="http://www.w3.org/2000/svg" xmlns:xlink="http://www.w3.org/1999/xlink" 
	 width="800px" height="800px" viewBox="0 0 977.317 977.317"
	 xml:space="preserve">
<g>
	<path d="M141.2,349.745c28.62,37.803,17.946,74.966,14.056,117.303l39.078-6.399c5.701-0.934,11.179-1.407,16.281-1.407
		c18.732,0,33.224,6.161,45.605,19.389c16.403,17.523,22.271,38.406,18.469,65.72l-4.853,34.857h35.193
		c40.339,0,78.615,17.27,113.763,51.331c27.416,26.568,42.575,53.871,43.233,55.07l26.633,50.479l26.633-50.479
		c0.658-1.199,15.817-28.502,43.233-55.069c35.147-34.062,73.423-51.332,113.763-51.332h35.193l-4.854-34.857
		c-3.802-27.312,2.066-48.195,18.469-65.72c12.382-13.229,26.873-19.389,45.605-19.389c5.102,0,10.579,0.474,16.281,1.407
		l39.078,6.399c-3.891-42.337-14.564-79.501,14.055-117.303c33.993-44.901,141.202-47.089,141.202-47.089
		c-71.107-73.299-194-66.94-274.083-37.989c-26.967,9.749-57.531,20.798-84.575,40.973c-17.831,13.302-32.229,30.529-43.048,46.312
		c-0.003-18.746-0.006-36.787-0.006-36.787l-0.015-73.933l-52.278,52.278l-12.959,12.959h-21.695h-21.695l-12.959-12.959
		l-52.278-52.278l-0.015,73.933c0,0-0.003,18.04-0.006,36.787c-10.819-15.783-25.217-33.01-43.048-46.312
		c-27.044-20.175-57.609-31.224-84.575-40.973C193.999,235.715,71.106,229.355,0,302.654
		C-0.001,302.656,107.207,304.844,141.2,349.745z M100.392,280.942c18.549-3.99,37.307-5.429,56.099-5.429
		c7.354,0,14.716,0.22,22.068,0.595c29.131,1.483,57.572,7.411,85.107,17.366c26.796,9.687,53.72,19.596,76.673,36.719
		c36.75,27.415,57.042,76.533,57.042,76.533s34.952-15.194,34.952-18.853c0-17.733,0.01-72.703,0.01-72.703l21.932,21.931h34.384
		h34.383l21.932-21.931c0,0,0.01,54.969,0.01,72.703c0,3.658,34.952,18.853,34.952,18.853s20.292-49.117,57.042-76.533
		c22.953-17.123,49.877-27.031,76.673-36.719c27.536-9.954,55.977-15.882,85.106-17.366c7.354-0.375,14.715-0.595,22.068-0.595
		c18.792,0,37.55,1.439,56.099,5.429c8.716,1.875,21.04,6.499,21.04,6.499c-16.301,1.574-113.128,23.42-113.128,107.094
		c0,11.858,1.98,23.728,3.097,35.885c-7.223-1.184-14.313-1.811-21.23-1.811c-25.511,0-48.716,8.519-67.969,29.088
		c-23.936,25.571-31.243,56.415-26.445,90.877c-113.438,0-178.311,112.333-183.629,121.897
		c-5.318-9.564-70.191-121.897-183.629-121.897c4.798-34.462-2.51-65.305-26.445-90.877c-19.253-20.569-42.458-29.088-67.969-29.088
		c-6.917,0-14.008,0.627-21.231,1.811c1.117-12.157,3.097-24.026,3.097-35.885c0-83.674-96.827-105.52-113.128-107.094
		C79.352,287.44,91.677,282.816,100.392,280.942z"/>
</g>
</svg>